<svg width="128" height="125" viewBox="0 0 128 125" fill="none" xmlns="http://www.w3.org/2000/svg">
<rect width="128" height="125" rx="10" fill="#EC4899"/>
<path d="M85.55 50.59C85.55 56.0033 83.3333 59.9467 78.9 62.42C84.7333 64.7067 87.65 69.1867 87.65 75.86V76.49C87.65 82.6033 85.7133 87.0133 81.84 89.72C77.9667 92.4267 72.67 93.78 65.95 93.78H53.77C50.97 93.78 48.7767 93.4067 47.19 92.66C45.6033 91.96 44.4833 90.8167 43.83 89.23C43.1767 87.6433 42.85 85.4733 42.85 82.72V43.45C42.85 40.6967 43.1767 38.5267 43.83 36.94C44.4833 35.3533 45.6033 34.21 47.19 33.51C48.7767 32.7633 50.97 32.39 53.77 32.39H63.99C70.57 32.39 75.7967 33.8833 79.67 36.87C83.59 39.8567 85.55 44.15 85.55 49.75V50.59ZM57.06 79.85C57.06 80.69 57.2 81.25 57.48 81.53C57.76 81.7633 58.2967 81.88 59.09 81.88H66.79C69.03 81.88 70.6867 81.3433 71.76 80.27C72.88 79.15 73.44 77.68 73.44 75.86V74.81C73.44 72.99 72.88 71.5433 71.76 70.47C70.6867 69.35 69.03 68.79 66.79 68.79H57.06V79.85ZM59.09 44.29C58.2967 44.29 57.76 44.43 57.48 44.71C57.2 44.9433 57.06 45.48 57.06 46.32V57.38H64.69C66.8833 57.38 68.54 56.82 69.66 55.7C70.78 54.58 71.34 53.11 71.34 51.29V50.38C71.34 48.5133 70.78 47.0433 69.66 45.97C68.5867 44.85 66.93 44.29 64.69 44.29H59.09Z" fill="white"/>
</svg>
