<svg width="25" height="10" viewBox="0 0 25 10" fill="none" xmlns="http://www.w3.org/2000/svg">
<path d="M19.2415 0.893066L20.0175 0.117829L24.244 4.34287C24.3121 4.41057 24.3662 4.49108 24.4031 4.57975C24.44 4.66843 24.459 4.76353 24.459 4.85958C24.459 4.95562 24.44 5.05072 24.4031 5.1394C24.3662 5.22807 24.3121 5.30858 24.244 5.37628L20.0175 9.60352L19.2423 8.82828L23.2091 4.86067L19.2415 0.893066Z" fill="black"/>
<path d="M6.0728 8.86885L5.28244 9.62941L1.13587 5.32588C1.06902 5.25692 1.01647 5.17541 0.981244 5.08606C0.946017 4.99671 0.928809 4.90127 0.930609 4.80524C0.932409 4.70921 0.953183 4.61449 0.991734 4.52652C1.03029 4.43855 1.08585 4.35907 1.15524 4.29266L5.46024 0.145387L6.22081 0.935019L2.18026 4.82757L6.0728 8.86885Z" fill="black"/>
</svg>
