<svg width="20" height="20" viewBox="0 0 20 20" fill="none" xmlns="http://www.w3.org/2000/svg">
<path d="M10.1206 11.2424L10.0938 11.2462V11.2733V11.5002C10.0938 11.6411 10.0378 11.7762 9.93816 11.8758C9.83853 11.9755 9.7034 12.0314 9.5625 12.0314C9.42161 12.0314 9.28648 11.9755 9.18685 11.8758C9.08722 11.7762 9.03125 11.6411 9.03125 11.5002V10.7502C9.03125 10.6093 9.08722 10.4742 9.18685 10.3745C9.28648 10.2749 9.42161 10.2189 9.5625 10.2189C10.919 10.2189 12.0313 9.28432 12.0313 8.12518C12.0313 6.96605 10.919 6.03143 9.5625 6.03143C8.20596 6.03143 7.09375 6.96605 7.09375 8.12518V8.50018C7.09375 8.64108 7.03778 8.7762 6.93815 8.87583C6.83853 8.97546 6.7034 9.03143 6.5625 9.03143C6.42161 9.03143 6.28648 8.97546 6.18685 8.87583C6.08723 8.7762 6.03125 8.64108 6.03125 8.50018V8.12518C6.03125 6.38779 7.60768 4.96893 9.5625 4.96893C11.5173 4.96893 13.0938 6.38779 13.0938 8.12518C13.0938 9.6931 11.8059 11.0023 10.1206 11.2424ZM18.0313 10.0002V10.0002C18.0313 8.32522 17.5346 6.68788 16.604 5.2952C15.6735 3.90252 14.3508 2.81706 12.8034 2.17608C11.2559 1.5351 9.55311 1.36739 7.91033 1.69416C6.26756 2.02093 4.75857 2.8275 3.57419 4.01187C2.38982 5.19625 1.58325 6.70524 1.25648 8.34801C0.92971 9.99079 1.09742 11.6936 1.7384 13.241C2.37938 14.7885 3.46484 16.1111 4.85752 17.0417C6.2502 17.9722 7.88754 18.4689 9.5625 18.4689H9.56254C11.8078 18.4664 13.9604 17.5734 15.5481 15.9858C17.1357 14.3981 18.0288 12.2455 18.0313 10.0002ZM10.4688 14.8752C10.4688 15.0544 10.4156 15.2296 10.316 15.3787C10.2164 15.5277 10.0749 15.6439 9.90931 15.7124C9.74372 15.781 9.5615 15.799 9.3857 15.764C9.20991 15.7291 9.04843 15.6427 8.92169 15.516C8.79495 15.3893 8.70864 15.2278 8.67367 15.052C8.6387 14.8762 8.65665 14.694 8.72524 14.5284C8.79383 14.3628 8.90999 14.2212 9.05902 14.1217C9.20805 14.0221 9.38327 13.9689 9.5625 13.9689C9.80286 13.9689 10.0334 14.0644 10.2033 14.2344C10.3733 14.4043 10.4688 14.6348 10.4688 14.8752ZM19.0938 10.0002C19.0937 11.8853 18.5347 13.7281 17.4874 15.2955C16.4401 16.8629 14.9516 18.0845 13.21 18.8059C11.4683 19.5273 9.55193 19.7161 7.70305 19.3483C5.85417 18.9805 4.15586 18.0728 2.82289 16.7398C1.48992 15.4068 0.58216 13.7085 0.214395 11.8596C-0.153371 10.0108 0.0353796 8.09434 0.756777 6.35273C1.47818 4.61112 2.69982 3.12255 4.26723 2.07524C5.83463 1.02793 7.67739 0.468937 9.56249 0.468933C12.0894 0.471906 14.512 1.47704 16.2988 3.26386C18.0856 5.05068 19.0908 7.47328 19.0938 10.0002Z" fill="#E36397" stroke="#E36397" stroke-width="0.0625"/>
</svg>
