<svg width="22" height="22" viewBox="0 0 22 22" fill="none" xmlns="http://www.w3.org/2000/svg">
<path d="M11.8801 6.01723L16.6541 7.28823M10.8581 9.81323L13.2441 10.4492M10.9771 16.9662L11.9311 17.2212C14.6311 17.9412 15.9811 18.3002 17.0451 17.6892C18.1081 17.0792 18.4701 15.7362 19.1931 13.0522L20.2161 9.25523C20.9401 6.57023 21.3011 5.22823 20.6871 4.17023C20.0731 3.11223 18.7241 2.75323 16.0231 2.03423L15.0691 1.77923C12.3691 1.05923 11.0191 0.700229 9.95611 1.31123C8.89211 1.92123 8.53011 3.26423 7.80611 5.94823L6.78411 9.74523C6.06011 12.4302 5.69811 13.7722 6.31311 14.8302C6.92711 15.8872 8.27711 16.2472 10.9771 16.9662Z" stroke="#8E8E8E" stroke-width="1.5" stroke-linecap="round" stroke-linejoin="round"/>
<path d="M11 19.9462L10.048 20.2062C7.35403 20.9392 6.00803 21.3062 4.94603 20.6832C3.88603 20.0612 3.52403 18.6932 2.80303 15.9552L1.78203 12.0832C1.06003 9.34622 0.699027 7.97722 1.31203 6.89922C1.84203 5.96622 3.00003 6.00022 4.50003 6.00022" stroke="#8E8E8E" stroke-width="1.5" stroke-linecap="round" stroke-linejoin="round"/>
</svg>
