<svg width="22" height="22" viewBox="0 0 22 22" fill="none" xmlns="http://www.w3.org/2000/svg">
<path d="M19 8.00006C18.205 4.01506 14.513 1.00006 10.08 1.00006C5.064 1.00006 1 4.85506 1 9.61006C1 11.8951 1.938 13.9701 3.469 15.5101C3.805 15.8501 4.03 16.3131 3.939 16.7901C3.79116 17.5657 3.45227 18.2923 2.953 18.9041C4.26146 19.1411 5.61162 18.9331 6.788 18.3131C7.2 18.0951 7.407 17.9871 7.552 17.9651C7.654 17.9491 7.787 17.9641 8 18.0001" stroke="#8E8E8E" stroke-width="1.5" stroke-linecap="round" stroke-linejoin="round"/>
<path d="M10 15.2621C10 18.1671 12.463 20.5231 15.5 20.5231C15.858 20.5231 16.2127 20.4904 16.564 20.4251C16.817 20.3781 16.943 20.3541 17.031 20.3671C17.119 20.3811 17.244 20.4471 17.494 20.5801C18.2 20.9561 19.024 21.0891 19.817 20.9411C19.5136 20.5671 19.308 20.1234 19.219 19.6501C19.164 19.3581 19.3 19.0751 19.505 18.8681C20.46 17.9107 20.9974 16.6143 21 15.2621C21 12.3561 18.537 10.0001 15.5 10.0001C12.463 10.0001 10 12.3561 10 15.2621Z" stroke="#8E8E8E" stroke-width="1.5" stroke-linecap="round" stroke-linejoin="round"/>
</svg>
