<svg width="19" height="18" viewBox="0 0 19 18" fill="none" xmlns="http://www.w3.org/2000/svg">
<path d="M1 14.3852V15.0002V4.00019V14.3852ZM1.615 16.0002C1.155 16.0002 0.770669 15.8462 0.462002 15.5382C0.153335 15.2302 -0.000664511 14.8455 2.15517e-06 14.3842V4.61619C2.15517e-06 4.15552 0.154336 3.77119 0.463002 3.46319C0.771669 3.15519 1.15567 3.00085 1.615 3.00019H6V1.61519C6 1.15519 6.15434 0.770852 6.463 0.462185C6.77167 0.153518 7.156 -0.000481406 7.616 0.000185261H10.385C10.845 0.000185261 11.2293 0.154185 11.538 0.462185C11.8467 0.770185 12.0007 1.15452 12 1.61519V3.00019H16.385C16.845 3.00019 17.229 3.15452 17.537 3.46319C17.845 3.77185 17.9993 4.15619 18 4.61619V8.13519C18 8.27719 17.9523 8.39185 17.857 8.47919C17.7617 8.56652 17.6427 8.60985 17.5 8.60919C17.3573 8.60852 17.2383 8.56085 17.143 8.46618C17.0477 8.37152 17 8.25285 17 8.11018V4.61619C17 4.43619 16.9423 4.28852 16.827 4.17319C16.7117 4.05785 16.5643 4.00019 16.385 4.00019H1.615C1.43567 4.00019 1.28834 4.05785 1.173 4.17319C1.05767 4.28852 1 4.43619 1 4.61619V14.3852C1 14.5645 1.05767 14.7119 1.173 14.8272C1.28834 14.9425 1.436 15.0002 1.616 15.0002H8.673C8.81567 15.0002 8.93467 15.0479 9.03 15.1432C9.12533 15.2385 9.173 15.3575 9.173 15.5002C9.173 15.6429 9.12533 15.7619 9.03 15.8572C8.93467 15.9525 8.81567 16.0002 8.673 16.0002H1.615ZM7 3.00019H11V1.61519C11 1.43585 10.9423 1.28852 10.827 1.17319C10.7117 1.05785 10.5643 1.00019 10.385 1.00019H7.615C7.43567 1.00019 7.28834 1.05785 7.173 1.17319C7.05767 1.28852 7 1.43585 7 1.61519V3.00019ZM15 18.0002C13.886 18.0002 12.941 17.6122 12.165 16.8362C11.3883 16.0589 11 15.1135 11 14.0002C11 12.8869 11.3883 11.9419 12.165 11.1652C12.9417 10.3885 13.8867 10.0002 15 10.0002C16.1133 10.0002 17.0587 10.3885 17.836 11.1652C18.6133 11.9419 19.0013 12.8869 19 14.0002C18.9987 15.1135 18.6107 16.0589 17.836 16.8362C17.0613 17.6135 16.116 18.0015 15 18.0002ZM14.615 15.1202L13.281 13.7842C13.2063 13.7102 13.1183 13.6702 13.017 13.6642C12.9163 13.6575 12.8223 13.6975 12.735 13.7842C12.6477 13.8722 12.604 13.9635 12.604 14.0582C12.604 14.1529 12.6473 14.2439 12.734 14.3312L14.434 16.0312C14.596 16.1925 14.7847 16.2732 15 16.2732C15.2153 16.2732 15.404 16.1925 15.566 16.0312L17.266 14.3312C17.34 14.2565 17.38 14.1685 17.386 14.0672C17.3927 13.9665 17.3527 13.8725 17.266 13.7852C17.1787 13.6979 17.0873 13.6542 16.992 13.6542C16.8967 13.6542 16.8057 13.6975 16.719 13.7842L15.384 15.1192V11.7892C15.384 11.6812 15.347 11.5899 15.273 11.5152C15.199 11.4412 15.108 11.4042 15 11.4042C14.892 11.4042 14.801 11.4412 14.727 11.5152C14.653 11.5892 14.616 11.6802 14.616 11.7882L14.615 15.1202Z" fill="#8E8E8E"/>
</svg>
