<svg width="20" height="20" viewBox="0 0 20 20" fill="none" xmlns="http://www.w3.org/2000/svg">
<path d="M10.5 14.8752C10.5 15.0606 10.445 15.2419 10.342 15.396C10.239 15.5502 10.0926 15.6704 9.92127 15.7413C9.74996 15.8123 9.56146 15.8308 9.37961 15.7947C9.19775 15.7585 9.0307 15.6692 8.89959 15.5381C8.76848 15.407 8.67919 15.2399 8.64302 15.0581C8.60684 14.8762 8.62541 14.6877 8.69637 14.5164C8.76732 14.3451 8.88749 14.1987 9.04166 14.0957C9.19583 13.9927 9.37708 13.9377 9.5625 13.9377C9.81115 13.9377 10.0496 14.0365 10.2254 14.2123C10.4012 14.3881 10.5 14.6265 10.5 14.8752ZM9.5625 4.93768C7.59375 4.93768 6 6.36737 6 8.12518V8.50018C6 8.64937 6.05927 8.79244 6.16476 8.89793C6.27025 9.00342 6.41332 9.06268 6.5625 9.06268C6.71169 9.06268 6.85476 9.00342 6.96025 8.89793C7.06574 8.79244 7.125 8.64937 7.125 8.50018V8.12518C7.125 6.988 8.21813 6.06268 9.5625 6.06268C10.9069 6.06268 12 6.988 12 8.12518C12 9.26237 10.9069 10.1877 9.5625 10.1877C9.41332 10.1877 9.27025 10.2469 9.16476 10.3524C9.05927 10.4579 9 10.601 9 10.7502V11.5002C9 11.6494 9.05927 11.7924 9.16476 11.8979C9.27025 12.0034 9.41332 12.0627 9.5625 12.0627C9.71169 12.0627 9.85476 12.0034 9.96025 11.8979C10.0657 11.7924 10.125 11.6494 10.125 11.5002V11.2733C11.8228 11.0314 13.125 9.71143 13.125 8.12518C13.125 6.36737 11.5313 4.93768 9.5625 4.93768ZM19.125 10.0002C19.125 11.8915 18.5642 13.7403 17.5134 15.3128C16.4627 16.8854 14.9692 18.111 13.2219 18.8348C11.4746 19.5585 9.5519 19.7479 7.69695 19.3789C5.84201 19.01 4.13814 18.0992 2.8008 16.7619C1.46346 15.4246 0.552716 13.7207 0.183745 11.8657C-0.185226 10.0108 0.00414312 8.08809 0.727906 6.34077C1.45167 4.59345 2.67732 3.1 4.24986 2.04925C5.82241 0.998514 7.67122 0.437683 9.5625 0.437683C12.0977 0.44066 14.5283 1.44909 16.3209 3.24176C18.1136 5.03443 19.122 7.46496 19.125 10.0002ZM18 10.0002C18 8.3314 17.5052 6.7001 16.578 5.31256C15.6509 3.92502 14.3331 2.84356 12.7914 2.20495C11.2496 1.56634 9.55314 1.39924 7.91643 1.72481C6.27972 2.05037 4.7763 2.85396 3.59629 4.03397C2.41629 5.21398 1.61269 6.71739 1.28713 8.35411C0.961566 9.99082 1.12866 11.6873 1.76727 13.2291C2.40589 14.7708 3.48734 16.0886 4.87488 17.0157C6.26242 17.9428 7.89372 18.4377 9.5625 18.4377C11.7995 18.4352 13.9442 17.5455 15.526 15.9637C17.1078 14.3819 17.9975 12.2372 18 10.0002Z" fill="#8E8E8E"/>
</svg>
