<svg width="12" height="8" viewBox="0 0 12 8" fill="none" xmlns="http://www.w3.org/2000/svg">
<path d="M0.375005 7.95247C0.268505 7.95247 0.179505 7.91622 0.108005 7.84372C0.0365052 7.77122 0.000505137 7.68197 5.13698e-06 7.57597C-0.000494863 7.46997 0.0355052 7.38097 0.108005 7.30897C0.180505 7.23697 0.269505 7.20122 0.375005 7.20172H11.625C11.7315 7.20172 11.8205 7.23772 11.892 7.30972C11.964 7.38172 12 7.47097 12 7.57747C12 7.68397 11.964 7.77297 11.892 7.84447C11.82 7.91597 11.731 7.95172 11.625 7.95172L0.375005 7.95247ZM0.375005 4.37497C0.268505 4.37497 0.179505 4.33897 0.108005 4.26697C0.0365052 4.19497 0.000505137 4.10572 5.13698e-06 3.99922C-0.000494863 3.89272 0.0355052 3.80372 0.108005 3.73222C0.180505 3.66072 0.269505 3.62497 0.375005 3.62497H11.625C11.7315 3.62497 11.8205 3.66097 11.892 3.73297C11.9635 3.80497 11.9995 3.89422 12 4.00072C12.0005 4.10722 11.9645 4.19622 11.892 4.26772C11.8195 4.33922 11.7305 4.37497 11.625 4.37497H0.375005ZM0.375005 0.797468C0.268505 0.797468 0.179505 0.761718 0.108005 0.690218C0.0360052 0.618218 5.13698e-06 0.528968 5.13698e-06 0.422468C5.13698e-06 0.315968 0.0360052 0.226968 0.108005 0.155468C0.180005 0.0839679 0.269005 0.0482178 0.375005 0.0482178H11.625C11.7315 0.0482178 11.8205 0.0842178 11.892 0.156218C11.9635 0.228218 11.9995 0.316968 12 0.422468C12.0005 0.527968 11.9645 0.616968 11.892 0.689468C11.8195 0.761968 11.7305 0.797968 11.625 0.797468H0.375005Z" fill="black"/>
</svg>
