<svg width="19" height="18" viewBox="0 0 19 18" fill="none" xmlns="http://www.w3.org/2000/svg">
<path d="M1 14.385V15V4V14.385ZM1.615 16C1.155 16 0.770669 15.846 0.462002 15.538C0.153335 15.23 -0.000664511 14.8453 2.15517e-06 14.384V4.616C2.15517e-06 4.15534 0.154336 3.771 0.463002 3.463C0.771669 3.155 1.15567 3.00067 1.615 3H6V1.615C6 1.155 6.15434 0.770669 6.463 0.462002C6.77167 0.153335 7.156 -0.000664511 7.616 2.15517e-06H10.385C10.845 2.15517e-06 11.2293 0.154002 11.538 0.462002C11.8467 0.770002 12.0007 1.15434 12 1.615V3H16.385C16.845 3 17.229 3.15434 17.537 3.463C17.845 3.77167 17.9993 4.156 18 4.616V8.135C18 8.277 17.9523 8.39167 17.857 8.479C17.7617 8.56634 17.6427 8.60967 17.5 8.609C17.3573 8.60834 17.2383 8.56067 17.143 8.466C17.0477 8.37133 17 8.25267 17 8.11V4.616C17 4.436 16.9423 4.28834 16.827 4.173C16.7117 4.05767 16.5643 4 16.385 4H1.615C1.43567 4 1.28834 4.05767 1.173 4.173C1.05767 4.28834 1 4.436 1 4.616V14.385C1 14.5643 1.05767 14.7117 1.173 14.827C1.28834 14.9423 1.436 15 1.616 15H8.673C8.81567 15 8.93467 15.0477 9.03 15.143C9.12533 15.2383 9.173 15.3573 9.173 15.5C9.173 15.6427 9.12533 15.7617 9.03 15.857C8.93467 15.9523 8.81567 16 8.673 16H1.615ZM7 3H11V1.615C11 1.43567 10.9423 1.28834 10.827 1.173C10.7117 1.05767 10.5643 1 10.385 1H7.615C7.43567 1 7.28834 1.05767 7.173 1.173C7.05767 1.28834 7 1.43567 7 1.615V3ZM15 18C13.886 18 12.941 17.612 12.165 16.836C11.3883 16.0587 11 15.1133 11 14C11 12.8867 11.3883 11.9417 12.165 11.165C12.9417 10.3883 13.8867 10 15 10C16.1133 10 17.0587 10.3883 17.836 11.165C18.6133 11.9417 19.0013 12.8867 19 14C18.9987 15.1133 18.6107 16.0587 17.836 16.836C17.0613 17.6133 16.116 18.0013 15 18ZM14.615 15.12L13.281 13.784C13.2063 13.71 13.1183 13.67 13.017 13.664C12.9163 13.6573 12.8223 13.6973 12.735 13.784C12.6477 13.872 12.604 13.9633 12.604 14.058C12.604 14.1527 12.6473 14.2437 12.734 14.331L14.434 16.031C14.596 16.1923 14.7847 16.273 15 16.273C15.2153 16.273 15.404 16.1923 15.566 16.031L17.266 14.331C17.34 14.2563 17.38 14.1683 17.386 14.067C17.3927 13.9663 17.3527 13.8723 17.266 13.785C17.1787 13.6977 17.0873 13.654 16.992 13.654C16.8967 13.654 16.8057 13.6973 16.719 13.784L15.384 15.119V11.789C15.384 11.681 15.347 11.5897 15.273 11.515C15.199 11.441 15.108 11.404 15 11.404C14.892 11.404 14.801 11.441 14.727 11.515C14.653 11.589 14.616 11.68 14.616 11.788L14.615 15.12Z" fill="#E36397"/>
</svg>
