<svg width="96" height="96" viewBox="0 0 96 96" fill="none" xmlns="http://www.w3.org/2000/svg">
<path d="M86 34H28C24.6 34 22 36.6 22 40V86C22 89.4 24.6 92 28 92H86C89.4 92 92 89.4 92 86V40C92 36.6 89.4 34 86 34Z" fill="#FFE082"/>
<path d="M63 25H77C80.4 25 83 27.6 83 31V77C83 80.4 80.4 83 77 83H19C15.6 83 13 80.4 13 77V63.4" stroke="#18193F" stroke-width="6" stroke-miterlimit="10" stroke-linecap="round" stroke-linejoin="round"/>
<path d="M13 43.8V31C13 27.6 15.6 25 19 25H49" stroke="#18193F" stroke-width="6" stroke-miterlimit="10" stroke-linecap="round" stroke-linejoin="round"/>
<path d="M33 25V17C33 14.8 34.8 13 37 13H59C61.2 13 63 14.8 63 17V25" stroke="#18193F" stroke-width="6" stroke-miterlimit="10" stroke-linecap="round" stroke-linejoin="round"/>
<path d="M42 54.9999H24.2C18 54.9999 13 49.9999 13 43.7999V33.3999" stroke="#18193F" stroke-width="6" stroke-miterlimit="10" stroke-linecap="round" stroke-linejoin="round"/>
<path d="M61.6 55H54" stroke="#18193F" stroke-width="6" stroke-miterlimit="10" stroke-linecap="round" stroke-linejoin="round"/>
<path d="M82.9999 39.3999V43.9999C82.9999 50.1999 77.9999 55.1999 71.7999 55.1999H61.3999" stroke="#18193F" stroke-width="6" stroke-miterlimit="10" stroke-linecap="round" stroke-linejoin="round"/>
<path d="M54 49H42V61H54V49Z" stroke="#18193F" stroke-width="6" stroke-miterlimit="10" stroke-linecap="round" stroke-linejoin="round"/>
</svg>
