<svg width="50" height="50" viewBox="0 0 50 50" fill="none" xmlns="http://www.w3.org/2000/svg">
<g clip-path="url(#clip0_1007_9417)">
<mask id="mask0_1007_9417" style="mask-type:luminance" maskUnits="userSpaceOnUse" x="0" y="0" width="50" height="50">
<path d="M0.0234375 0H50V50H0.0234375V0Z" fill="white"/>
</mask>
<g mask="url(#mask0_1007_9417)">
<path d="M9.81263 37.5234C9.81263 37.5234 8.76966 43.3789 14.0939 41.6093C22.8673 38.6914 23.2892 41.875 25.9806 42.9726C30.0001 44.6093 34.5197 44.4297 39.1915 39.3828C44.0587 34.1211 26.9376 32.6601 22.2658 32.1718C17.5978 31.6875 10.3009 37.4258 10.3009 37.4258" fill="#DBA689"/>
</g>
<mask id="mask1_1007_9417" style="mask-type:luminance" maskUnits="userSpaceOnUse" x="0" y="0" width="50" height="50">
<path d="M0.0234375 0H50V50H0.0234375V0Z" fill="white"/>
</mask>
<g mask="url(#mask1_1007_9417)">
<path d="M2.70333 40.3633L0.297075 47.3008V47.7383C0.297075 47.7383 -0.859175 50.6289 1.58614 48.586C1.7502 48.5703 1.91817 48.5118 1.91817 48.5118C1.91817 48.5118 8.48067 43.2149 8.69942 43.1446C8.91817 43.0743 11.8557 38.4532 11.8557 38.4532C11.8557 38.4532 6.28926 34.0039 5.37129 35.4141C4.45723 36.8164 2.70333 40.3633 2.70333 40.3633Z" fill="#006CA0"/>
</g>
<mask id="mask2_1007_9417" style="mask-type:luminance" maskUnits="userSpaceOnUse" x="0" y="0" width="50" height="50">
<path d="M0.0234375 0H50V50H0.0234375V0Z" fill="white"/>
</mask>
<g mask="url(#mask2_1007_9417)">
<path d="M27.328 18.5157C27.328 18.5157 18.7851 14.1563 14.9843 16.8985C11.6405 19.3125 8.88662 20.6914 7.20302 21.6641C5.51943 22.6367 3.0663 22.4492 2.72646 27.0157C2.4374 30.9571 2.43349 34.2852 1.80458 35.6289C0.0233346 39.4219 4.79677 42.0117 6.57021 34.8985C8.39052 28.8672 13.6249 34.0235 17.7069 33.0508C21.7929 32.0782 29.3632 24.7539 30.2265 22.7891C31.414 20.086 27.328 18.5157 27.328 18.5157Z" fill="#DBA689"/>
</g>
<mask id="mask3_1007_9417" style="mask-type:luminance" maskUnits="userSpaceOnUse" x="0" y="0" width="50" height="50">
<path d="M0.0234375 0H50V50H0.0234375V0Z" fill="white"/>
</mask>
<g mask="url(#mask3_1007_9417)">
<path d="M6.29297 33.293C6.29297 33.293 25.7109 3.50003 27.4414 1.55471C28.9883 -0.183567 27.8203 -0.257785 33.4531 3.30471C34.8672 4.19925 12.4102 34.5781 12.4102 34.5781L5.94141 33.9922L6.29297 33.293Z" fill="#006CA0"/>
</g>
<mask id="mask4_1007_9417" style="mask-type:luminance" maskUnits="userSpaceOnUse" x="0" y="0" width="50" height="50">
<path d="M0.0234375 0H50V50H0.0234375V0Z" fill="white"/>
</mask>
<g mask="url(#mask4_1007_9417)">
<path d="M21.2111 23.3203C21.2111 23.3203 17.9025 28.1836 13.8166 30.1289C9.73067 32.0742 4.67208 32.8515 5.44942 36.1601C6.22677 39.4687 10.1174 41.8047 16.344 37.1328C19.6525 34.9922 21.5979 36.7422 24.5158 38.1054C27.4338 39.4687 28.0158 41.8008 35.2151 40.6328C42.4143 39.4648 43.1291 40.8008 46.3049 42.3828C49.4182 40.4375 49.8049 34.6015 49.8049 30.9023C49.8049 27.2031 49.3557 27.6797 44.9416 27.207C41.4416 26.039 32.0471 21.3554 29.5354 19.7812C28.5236 19.1484 26.1213 17.4062 23.1057 20.8711" fill="#FADCBC"/>
</g>
</g>
<defs>
<clipPath id="clip0_1007_9417">
<rect width="50" height="50" fill="white"/>
</clipPath>
</defs>
</svg>
