<svg width="50" height="50" viewBox="0 0 50 50" fill="none" xmlns="http://www.w3.org/2000/svg">
<path d="M26.0656 48.8711C9.58727 48.8711 5.18454 31.6936 7.17468 20.4388C7.2613 19.9489 7.90339 19.8078 8.18317 20.2192C9.04958 21.4926 9.82057 23.332 11.098 23.1723C13.018 22.9322 14.3482 5.99006 25.7276 1.22297C26.0887 1.0717 26.4666 1.35871 26.4269 1.74816C25.8642 7.26896 29.179 15.1728 35.0515 15.1728C38.4179 15.1728 40.7213 12.4861 41.8722 9.78781C42.2218 8.96818 43.4194 9.0715 43.6199 9.93976C45.6737 18.8345 51.1638 48.8711 26.0656 48.8711Z" fill="#FF8F1F"/>
<path d="M20.2884 32.3074C20.6759 31.9818 21.2642 32.2052 21.3522 32.7036C21.5581 33.87 22.235 35.8743 24.4555 35.8743C27.1266 35.8743 28.9393 28.5244 29.4147 26.3627C29.4929 26.0071 29.8395 25.7656 30.1963 25.8381C36.8716 27.1953 40.1172 48.8711 25.4402 48.8711C14.7554 48.8711 17.176 34.922 20.2884 32.3074ZM38.5288 8.83343C38.764 6.9934 35.405 12.0261 35.405 12.0261C35.405 12.0261 37.9659 13.2357 38.5288 8.83343ZM4.68365 36.275C4.75445 35.4917 3.74674 33.3945 3.56832 34.2248C3.14127 36.2116 4.61285 37.0584 4.68365 36.275Z" fill="#FFB636"/>
<path d="M31.56 34.0425C31.3098 32.9986 30.4121 35.4234 30.5249 36.4111C30.6377 37.3987 32.1588 36.5402 31.56 34.0425Z" fill="#FFD469"/>
</svg>
