<svg width="96" height="96" viewBox="0 0 96 96" fill="none" xmlns="http://www.w3.org/2000/svg">
<path d="M56 75C66.4934 75 75 66.4934 75 56C75 45.5066 66.4934 37 56 37C45.5066 37 37 45.5066 37 56C37 66.4934 45.5066 75 56 75Z" fill="#FFE082"/>
<path d="M48 11V17" stroke="#18193F" stroke-width="6" stroke-miterlimit="10" stroke-linecap="round"/>
<path d="M21.7998 21.8L25.9998 26" stroke="#18193F" stroke-width="6" stroke-miterlimit="10" stroke-linecap="round"/>
<path d="M11 48H17" stroke="#18193F" stroke-width="6" stroke-miterlimit="10" stroke-linecap="round"/>
<path d="M21.7998 74.2L25.9998 70" stroke="#18193F" stroke-width="6" stroke-miterlimit="10" stroke-linecap="round"/>
<path d="M48 85V79" stroke="#18193F" stroke-width="6" stroke-miterlimit="10" stroke-linecap="round"/>
<path d="M74.2 74.2L70 70" stroke="#18193F" stroke-width="6" stroke-miterlimit="10" stroke-linecap="round"/>
<path d="M85 48H79" stroke="#18193F" stroke-width="6" stroke-miterlimit="10" stroke-linecap="round"/>
<path d="M74.2 21.8L70 26" stroke="#18193F" stroke-width="6" stroke-miterlimit="10" stroke-linecap="round"/>
<path d="M53.8 66.2001C52 66.6001 50 67.0001 48 67.0001C37.6 67.0001 29 58.4001 29 48.0001C29 45.8001 29.4 43.6001 30.2 41.6001" stroke="#18193F" stroke-width="6" stroke-miterlimit="10" stroke-linecap="round"/>
<path d="M40.3999 30.6C42.7999 29.6 45.1999 29 47.9999 29C58.3999 29 66.9999 37.6 66.9999 48C66.9999 50.2 66.5999 52.4 65.9999 54.2" stroke="#18193F" stroke-width="6" stroke-miterlimit="10" stroke-linecap="round"/>
</svg>
