<svg width="40" height="40" viewBox="0 0 40 40" fill="none" xmlns="http://www.w3.org/2000/svg">
<path d="M22.6936 3.25001C23.6139 2.31499 24.7101 1.57141 25.9192 1.06215C27.1282 0.55288 28.4261 0.288004 29.7381 0.282793C31.05 0.277582 32.35 0.532139 33.563 1.03178C34.7761 1.53143 35.8782 2.26628 36.8059 3.19395C37.7336 4.12163 38.4684 5.22377 38.9681 6.43683C39.4677 7.64989 39.7223 8.94986 39.717 10.2618C39.7118 11.5737 39.447 12.8716 38.9377 14.0807C38.4284 15.2897 37.6849 16.386 36.7498 17.3063L30.4373 23.6188L27.4894 20.675L33.8019 14.3604C34.8849 13.278 35.4935 11.8097 35.4939 10.2786C35.4943 8.74741 34.8864 7.27881 33.804 6.19584C32.7216 5.11287 31.2533 4.50425 29.7221 4.50386C28.191 4.50347 26.7224 5.11134 25.6394 6.19376L19.3248 12.5083L16.379 9.56251L22.6936 3.25001ZM27.1103 15.8333L15.829 27.1125L12.8832 24.1667L24.1623 12.8875L27.1103 15.8333ZM12.5061 19.325L6.19359 25.6396C5.11062 26.7226 4.50221 28.1914 4.50221 29.7229C4.50221 31.2545 5.11062 32.7233 6.19359 33.8063C7.27655 34.8892 8.74537 35.4976 10.2769 35.4976C11.8085 35.4976 13.2773 34.8892 14.3603 33.8063L20.6728 27.4917L23.6186 30.4375L17.3061 36.75C15.4421 38.6143 12.9139 39.6617 10.2777 39.6619C7.6414 39.6621 5.11305 38.615 3.2488 36.7511C1.38454 34.8871 0.337109 32.3589 0.336914 29.7226C0.336719 27.0864 1.38378 24.558 3.24775 22.6938L9.56025 16.3813L12.5061 19.325Z" fill="#8E8E8E"/>
</svg>
