<svg width="50" height="50" viewBox="0 0 50 50" fill="none" xmlns="http://www.w3.org/2000/svg">
<path fill-rule="evenodd" clip-rule="evenodd" d="M37.4759 34.9822L50 47.434L47.4185 50L34.867 37.524C30.6287 40.9979 25.2044 42.7107 19.7262 42.3049C14.2479 41.8991 9.13895 39.4061 5.46544 35.3461C1.79193 31.2861 -0.162301 25.9729 0.0105637 20.5152C0.183428 15.0575 2.47003 9.87693 6.3932 6.0547C10.3164 2.23247 15.573 0.0638418 21.0661 0.00138719C26.5591 -0.0610674 31.8643 1.98747 35.8744 5.71951C39.8845 9.45154 42.2897 14.5787 42.5881 20.0311C42.8865 25.4835 41.0551 30.8397 37.4759 34.9822ZM38.9676 21.1808C38.9676 16.5261 37.1074 12.062 33.7961 8.77064C30.4848 5.47927 25.9938 3.63019 21.311 3.63019C16.6281 3.63019 12.1371 5.47927 8.8258 8.77064C5.51453 12.062 3.65428 16.5261 3.65428 21.1808C3.65428 25.8355 5.51453 30.2995 8.8258 33.5909C12.1371 36.8823 16.6281 38.7313 21.311 38.7313C25.9938 38.7313 30.4848 36.8823 33.7961 33.5909C37.1074 30.2995 38.9676 25.8355 38.9676 21.1808Z" fill="#8E8E8E"/>
</svg>
