<svg width="50" height="50" viewBox="0 0 50 50" fill="none" xmlns="http://www.w3.org/2000/svg">
<path d="M25.9924 11.8516L33.0393 15.8125L37.0408 22.9016L14.6408 45.3016L7.04394 41.2859L3.59082 34.2547L25.9924 11.8516Z" fill="#FF822D"/>
<path d="M2.17188 43.8516L3.08125 45.9016L5.04219 46.7219L14.6203 45.2766L3.61719 34.2734L2.17188 43.8516Z" fill="#FFCE7C"/>
<path d="M1.66113 47.2328L2.17051 43.8516L5.04238 46.7219L1.66113 47.2328Z" fill="#402A32"/>
<path d="M34.8062 3.03744C35.0964 2.74713 35.441 2.51683 35.8202 2.3597C36.1995 2.20258 36.6059 2.1217 37.0164 2.1217C37.4269 2.1217 37.8334 2.20258 38.2126 2.3597C38.5918 2.51683 38.9364 2.74713 39.2266 3.03744L45.8547 9.66713C46.4405 10.2532 46.7696 11.0479 46.7696 11.8765C46.7696 12.7051 46.4405 13.4999 45.8547 14.0859L40.3313 19.6109L33.2578 16.0734L29.2812 8.56244L34.8062 3.03744Z" fill="#F92F60"/>
<path d="M29.2812 8.5625L40.3312 19.6109L37.0156 22.925L25.9688 11.8781L29.2812 8.5625Z" fill="#D9D9D9"/>
</svg>
