<svg width="50" height="50" viewBox="0 0 50 50" fill="none" xmlns="http://www.w3.org/2000/svg">
<path d="M26.7969 39.6094H28.75V48.0469H26.7969V39.6094Z" fill="#E08828"/>
<path d="M28.3594 48.125C28.3594 47.7344 29.7656 46.9531 31.4844 46.9531C33.2031 46.9531 34.6094 47.7344 34.6094 48.125C34.6094 48.5156 33.2031 48.4375 31.4844 48.4375C29.7656 48.4375 28.3594 48.5156 28.3594 48.125Z" fill="#E08828"/>
<path d="M24.6094 48.125C24.6094 47.7344 26.0156 46.9531 27.7344 46.9531C29.4531 46.9531 30.8594 47.7344 30.8594 48.125C30.8594 48.5156 29.4531 48.4375 27.7344 48.4375C26.0156 48.4375 24.6094 48.5156 24.6094 48.125Z" fill="#E08828"/>
<path d="M20.9375 48.125C20.9375 47.7344 22.3437 46.9531 24.0625 46.9531C25.7812 46.9531 27.1875 47.7344 27.1875 48.125C27.1875 48.5156 25.7812 48.4375 24.0625 48.4375C22.3437 48.4375 20.9375 48.5156 20.9375 48.125ZM10.9375 43.5156L9.375 42.4219L14.2969 36.0156L15.8594 37.1094L10.9375 43.5156Z" fill="#E08828"/>
<path d="M10.5472 43.2813C10.7815 42.9688 12.4222 43.125 13.7503 44.0625C15.1565 45 15.7815 46.4844 15.5472 46.7969C15.3128 47.1094 14.219 46.25 12.8128 45.3125C11.4847 44.375 10.3128 43.5938 10.5472 43.2813Z" fill="#E08828"/>
<path d="M7.5784 41.25C7.81278 40.9375 9.4534 41.0938 10.7815 42.0313C12.1878 42.9688 12.8128 44.4531 12.5784 44.7656C12.344 45.0781 11.2503 44.2188 9.84403 43.2813C8.5159 42.2656 7.34403 41.5625 7.5784 41.25Z" fill="#E08828"/>
<path d="M4.68763 39.1406C4.922 38.8281 6.56263 38.9844 7.89075 39.9219C9.297 40.8594 9.922 42.3438 9.68762 42.6563C9.45325 42.9688 8.3595 42.1094 6.95325 41.1719C5.547 40.2344 4.37513 39.4531 4.68763 39.1406Z" fill="#E08828"/>
<path d="M47.5781 23.8281C51.1719 23.8281 43.75 40.3125 25.8594 40.3125C13.6719 40.3125 5.15625 35.1562 5.15625 25.625C5.15625 16.0937 11.875 6.87498 24.0625 9.99998C36.4844 13.125 27.7344 23.8281 47.5781 23.8281Z" fill="#FFD93B"/>
<path d="M15.625 17.0312C14.7656 20.3906 25.3125 17.1875 23.3594 10.3125C21.4062 3.4375 14.9219 1.5625 14.9219 1.5625C14.9219 1.5625 17.8906 8.20312 15.625 17.0312Z" fill="#FFD93B"/>
<path d="M15.8594 17.4219C18.4375 19.9219 22.1094 10.8594 14.5312 8.20312C6.95313 5.54687 3.28125 7.49999 3.28125 7.49999C3.28125 7.49999 9.0625 10.7812 15.8594 17.4219Z" fill="#FFD93B"/>
<path d="M24.4531 20.0781C24.2187 23.4375 15 18.5156 19.0625 12.1875C23.125 5.85938 30.0781 5.23438 30.0781 5.23438C30.0781 5.23438 25.1562 11.0156 24.4531 20.0781Z" fill="#FFD93B"/>
<path d="M44.6875 32.1875C40.7812 32.8907 34.1406 35.5469 26.7188 35.5469C17.8125 35.5469 10.1563 31.7969 6.79688 32.0313C9.76562 37.4219 16.7969 40.3125 25.8594 40.3125C34.7656 40.3125 41.0156 36.25 44.6875 32.1875Z" fill="#FFEA92"/>
<path d="M2.65625 24.375L7.03125 23.5938C7.03125 25.625 6.875 26.9531 5.39062 26.9531C3.98438 27.0312 2.65625 26.4062 2.65625 24.375Z" fill="#E08828"/>
<path d="M7.03125 23.6719L1.5625 25.1563C1.5625 22.6563 3.59375 19.8438 5.39062 19.8438C7.26562 19.9219 7.03125 21.1719 7.03125 23.6719Z" fill="#F29A2E"/>
<path d="M8.59375 19.6094C8.59375 18.3594 9.60937 17.0312 10.8594 17.0312C12.1094 17.0312 13.125 18.3594 13.125 19.6094C13.125 20.8594 12.1094 21.4063 10.8594 21.4063C9.60937 21.3281 8.59375 20.7813 8.59375 19.6094Z" fill="#3E4347"/>
<path d="M37.8906 29.1406C37.8906 33.2812 32.6562 36.6406 26.1719 36.6406C19.6875 36.6406 18.5156 33.2812 18.5156 29.1406C18.5156 25 19.6875 21.6406 26.1719 21.6406C32.6562 21.6406 37.8906 25 37.8906 29.1406Z" fill="#FFBF3E"/>
<path d="M40 28.8281C38.9063 29.1406 38.0469 28.6719 38.0469 28.6719C39.2188 27.6563 39.5312 25.9375 39.5312 25.9375C38.75 26.6406 37.3438 26.6406 37.3438 26.6406C37.7344 25.3906 37.5 24.4531 37.5 24.4531C35.7031 27.1094 29.375 27.1875 29.375 27.1875C33.2031 29.6875 35.2344 33.0469 35.2344 33.0469C38.2812 31.9531 40 28.8281 40 28.8281Z" fill="#FFBF3E"/>
</svg>
