<svg width="38" height="46" viewBox="0 0 38 46" fill="none" xmlns="http://www.w3.org/2000/svg">
<path d="M29.3125 29.2292C31.3519 27.1896 32.7407 24.5911 33.3032 21.7623C33.8658 18.9334 33.5769 16.0013 32.4731 13.3366C31.3693 10.6719 29.5001 8.39443 27.1019 6.79206C24.7037 5.18969 21.8843 4.33443 19 4.33443C16.1158 4.33443 13.2963 5.18969 10.8981 6.79206C8.49991 8.39443 6.63073 10.6719 5.52691 13.3366C4.42309 16.0013 4.1342 18.9334 4.69678 21.7623C5.25936 24.5911 6.64814 27.1896 8.68751 29.2292L19 39.5417L29.3125 29.2292ZM19 45.4334L5.74168 32.175C3.11946 29.5528 1.33372 26.2119 0.610268 22.5747C-0.113187 18.9376 0.258139 15.1676 1.67729 11.7415C3.09644 8.3154 5.49967 5.38707 8.58309 3.3268C11.6665 1.26653 15.2916 0.16687 19 0.16687C22.7084 0.16687 26.3335 1.26653 29.4169 3.3268C32.5003 5.38707 34.9036 8.3154 36.3227 11.7415C37.7419 15.1676 38.1132 18.9376 37.3897 22.5747C36.6663 26.2119 34.8806 29.5528 32.2583 32.175L19 45.4334ZM21.0833 18.9167H29.4167V23.0834H16.9167V8.50004H21.0833V18.9167Z" fill="#8E8E8E"/>
</svg>
