<svg width="20" height="16" viewBox="0 0 20 16" fill="none" xmlns="http://www.w3.org/2000/svg">
<path d="M18.9994 0.973284L0.999426 0.973284C0.817185 0.973855 0.63855 1.02412 0.48275 1.11866C0.32695 1.21321 0.199884 1.34845 0.115231 1.50984C0.0305767 1.67122 -0.00845994 1.85264 0.00232315 2.03457C0.0131062 2.21649 0.0733 2.39203 0.176426 2.54228L9.17643 15.5423C9.54943 16.0813 10.4474 16.0813 10.8214 15.5423L19.8214 2.54228C19.9256 2.39234 19.9867 2.21671 19.9981 2.03449C20.0094 1.85226 19.9706 1.67041 19.8859 1.50868C19.8012 1.34695 19.6738 1.21153 19.5175 1.11714C19.3612 1.02275 19.182 0.972996 18.9994 0.973284Z" fill="black"/>
</svg>
