<svg width="30" height="32" viewBox="0 0 30 32" fill="none" xmlns="http://www.w3.org/2000/svg">
<path d="M24.7221 31.6666C23.3718 31.6666 22.224 31.2109 21.2788 30.2994C20.3336 29.388 19.8609 28.2812 19.8609 26.9791C19.8609 26.8229 19.9015 26.4583 19.9825 25.8854L8.59937 19.4791C8.16728 19.8698 7.66766 20.176 7.10053 20.3979C6.5334 20.6198 5.92576 20.7302 5.27762 20.7291C3.92731 20.7291 2.77954 20.2734 1.83433 19.3619C0.889112 18.4505 0.416504 17.3437 0.416504 16.0416C0.416504 14.7395 0.889112 13.6328 1.83433 12.7213C2.77954 11.8099 3.92731 11.3541 5.27762 11.3541C5.92576 11.3541 6.5334 11.4651 7.10053 11.6869C7.66766 11.9088 8.16728 12.2145 8.59937 12.6041L19.9825 6.19788C19.9285 6.01558 19.895 5.84006 19.882 5.67131C19.869 5.50256 19.862 5.3135 19.8609 5.10413C19.8609 3.80204 20.3336 2.69527 21.2788 1.78381C22.224 0.872355 23.3718 0.416626 24.7221 0.416626C26.0724 0.416626 27.2201 0.872355 28.1653 1.78381C29.1106 2.69527 29.5832 3.80204 29.5832 5.10413C29.5832 6.40621 29.1106 7.51298 28.1653 8.42444C27.2201 9.3359 26.0724 9.79163 24.7221 9.79163C24.0739 9.79163 23.4663 9.68069 22.8991 9.45881C22.332 9.23694 21.8324 8.93121 21.4003 8.54163L10.0172 14.9479C10.0712 15.1302 10.1052 15.3062 10.1193 15.476C10.1333 15.6458 10.1398 15.8343 10.1387 16.0416C10.1376 16.2489 10.1312 16.438 10.1193 16.6088C10.1074 16.7796 10.0734 16.9552 10.0172 17.1354L21.4003 23.5416C21.8324 23.151 22.332 22.8453 22.8991 22.6244C23.4663 22.4036 24.0739 22.2927 24.7221 22.2916C26.0724 22.2916 27.2201 22.7474 28.1653 23.6588C29.1106 24.5703 29.5832 25.677 29.5832 26.9791C29.5832 28.2812 29.1106 29.388 28.1653 30.2994C27.2201 31.2109 26.0724 31.6666 24.7221 31.6666ZM24.7221 28.5416C25.1812 28.5416 25.5663 28.3921 25.8774 28.0932C26.1885 27.7942 26.3435 27.4229 26.3424 26.9791C26.3414 26.5354 26.1858 26.1645 25.8758 25.8666C25.5657 25.5687 25.1812 25.4187 24.7221 25.4166C24.263 25.4145 23.8784 25.5645 23.5684 25.8666C23.2583 26.1687 23.1028 26.5395 23.1017 26.9791C23.1006 27.4187 23.2562 27.7901 23.5684 28.0932C23.8805 28.3963 24.2651 28.5458 24.7221 28.5416ZM5.27762 17.6041C5.73672 17.6041 6.12183 17.4541 6.43294 17.1541C6.74405 16.8541 6.89907 16.4833 6.89799 16.0416C6.89691 15.6 6.74135 15.2291 6.43132 14.9291C6.12129 14.6291 5.73672 14.4791 5.27762 14.4791C4.81851 14.4791 4.43394 14.6291 4.12391 14.9291C3.81388 15.2291 3.65832 15.6 3.65724 16.0416C3.65616 16.4833 3.81172 16.8546 4.12391 17.1557C4.4361 17.4567 4.82067 17.6062 5.27762 17.6041ZM24.7221 6.66663C25.1812 6.66663 25.5663 6.51663 25.8774 6.21663C26.1885 5.91663 26.3435 5.54579 26.3424 5.10413C26.3414 4.66246 26.1858 4.29163 25.8758 3.99163C25.5657 3.69163 25.1812 3.54163 24.7221 3.54163C24.263 3.54163 23.8784 3.69163 23.5684 3.99163C23.2583 4.29163 23.1028 4.66246 23.1017 5.10413C23.1006 5.54579 23.2562 5.91715 23.5684 6.21819C23.8805 6.51923 24.2651 6.66871 24.7221 6.66663Z" fill="#8E8E8E"/>
</svg>
