<svg width="96" height="96" viewBox="0 0 96 96" fill="none" xmlns="http://www.w3.org/2000/svg">
<path d="M22 87.6001L26.8 70.8001C27 69.8001 27.6 69.0001 28.4 68.2001L72.4 24.4001C77 19.8001 84.4 20.2001 88.6 25.2001C92.2 29.6001 91.6 36.2001 87.6 40.2001L43.8 83.6001C43 84.4001 42.2 84.8001 41.2 85.2001L24.4 90.0001C23 90.4001 21.6 89.0001 22 87.6001Z" fill="#A5D6A7"/>
<path d="M36.7998 43.5999L64.1998 16.1999C68.7998 11.5999 76.1998 11.9999 80.3998 16.9999C83.9998 21.3999 83.3998 27.9999 79.3998 31.9999L73.7998 37.5999" stroke="#18193F" stroke-width="6" stroke-linecap="round" stroke-linejoin="round"/>
<path d="M65 46.6001L35.8 75.6001C35 76.4001 34.2 76.8001 33.2 77.2001L13 83.0001L18.8 62.8001C19 61.8001 19.6 61.0001 20.4 60.2001L27.8 52.8001" stroke="#18193F" stroke-width="6" stroke-linecap="round" stroke-linejoin="round"/>
<path d="M58.2002 22.2L73.8002 37.7999" stroke="#18193F" stroke-width="6" stroke-linecap="round" stroke-linejoin="round"/>
</svg>
