<svg width="46" height="32" viewBox="0 0 46 32" fill="none" xmlns="http://www.w3.org/2000/svg">
<path d="M23.0002 9.75C21.3426 9.75 19.7528 10.4085 18.5807 11.5806C17.4086 12.7527 16.7502 14.3424 16.7502 16C16.7502 17.6576 17.4086 19.2473 18.5807 20.4194C19.7528 21.5915 21.3426 22.25 23.0002 22.25C24.6578 22.25 26.2475 21.5915 27.4196 20.4194C28.5917 19.2473 29.2502 17.6576 29.2502 16C29.2502 14.3424 28.5917 12.7527 27.4196 11.5806C26.2475 10.4085 24.6578 9.75 23.0002 9.75ZM23.0002 26.4167C20.2375 26.4167 17.588 25.3192 15.6345 23.3657C13.681 21.4122 12.5835 18.7627 12.5835 16C12.5835 13.2373 13.681 10.5878 15.6345 8.6343C17.588 6.6808 20.2375 5.58333 23.0002 5.58333C25.7628 5.58333 28.4124 6.6808 30.3659 8.6343C32.3194 10.5878 33.4168 13.2373 33.4168 16C33.4168 18.7627 32.3194 21.4122 30.3659 23.3657C28.4124 25.3192 25.7628 26.4167 23.0002 26.4167ZM23.0002 0.375C12.5835 0.375 3.68766 6.85417 0.0834961 16C3.68766 25.1458 12.5835 31.625 23.0002 31.625C33.4168 31.625 42.3127 25.1458 45.9168 16C42.3127 6.85417 33.4168 0.375 23.0002 0.375Z" fill="#8E8E8E"/>
</svg>
