<svg width="50" height="50" viewBox="0 0 50 50" fill="none" xmlns="http://www.w3.org/2000/svg">
<g clip-path="url(#clip0_445_16111)">
<path d="M39.4531 26.875C36.9531 20.2344 30.1562 14.7656 32.5 6.64062C23.3594 7.42187 14.2187 8.28125 5.07811 9.0625C0.703106 24.2187 19.6094 32.5781 15.1562 47.7344C23.4375 43.4375 32.0312 39.6094 40.2344 35.3906C41.0937 32.4219 40.3906 29.375 39.4531 26.875Z" fill="#93A2AA"/>
<path d="M5.15625 29.5312C7.57812 28.125 10.0781 26.7188 12.5 25.2344C14.1406 26.7188 15.625 28.3594 16.4844 30.3125C13.9062 31.5625 11.3281 32.8906 8.82813 34.1406C8.90625 32.9688 8.90625 31.875 8.82813 30.8594C7.65625 30.3906 6.40625 29.9219 5.15625 29.5312Z" fill="#933434"/>
<path d="M46.0938 26.0938C43.2032 18.4375 35.3907 12.1875 38.125 2.8125C27.6563 3.75 17.1094 4.6875 6.64065 5.625C1.56253 22.9688 23.2032 32.5781 18.125 50C27.5782 45.0781 37.5 40.7031 46.9532 35.7813C47.9688 32.3438 47.1875 28.9063 46.0938 26.0938Z" fill="#B0BDC6"/>
<path d="M0 17.9688C3.20312 17.0313 6.48437 16.0156 9.6875 15.0781C11.25 17.2656 12.5 19.6094 13.0469 22.1875C9.6875 22.9688 6.40625 23.6719 3.04687 24.4531C3.51562 23.125 3.75 21.875 3.90625 20.5469C2.65625 19.6094 1.40625 18.8281 0 17.9688Z" fill="#ED4C5C"/>
<path d="M8.04681 3.90625C3.74994 20.625 25.8593 28.75 21.4843 45.4688C30.7812 40.4688 40.3906 35.8594 49.6874 30.8594C50.5468 27.5781 49.6093 24.2969 48.4374 21.7188C45.1562 14.5312 37.1093 8.90625 39.4531 0C28.9843 1.32812 18.5156 2.65625 8.04681 3.90625Z" fill="#D9E3E8"/>
<path d="M11.5625 9.6875C11.6406 10.3125 11.7969 10.9375 11.875 11.4844L35.5469 6.79687C35.4687 6.32812 35.3125 5.85938 35.2344 5.39062C27.3437 6.875 19.4531 8.28125 11.5625 9.6875ZM13.75 16.3281C21.4844 14.4531 29.2188 12.5781 37.0312 10.7031C36.7969 10.2344 36.5625 9.84375 36.4062 9.375C28.5937 11.1719 20.7812 12.8906 12.9688 14.6875C13.2031 15.2344 13.5156 15.7812 13.75 16.3281ZM16.5625 20.7813C24.1406 18.5938 31.6406 16.4063 39.2188 14.2188C38.9062 13.8281 38.6719 13.3594 38.3594 12.9688C30.7031 15.0781 23.125 17.1094 15.4687 19.2188C15.8594 19.7656 16.1719 20.3125 16.5625 20.7813ZM25 35.7031C25.1562 36.3281 25.2344 36.875 25.3125 37.5C28.75 35.8594 32.2656 34.1406 35.7031 32.5C35.625 31.9531 35.5469 31.4062 35.3906 30.8594C31.9531 32.4219 28.5156 34.0625 25 35.7031Z" fill="#7D8B91"/>
</g>
<defs>
<clipPath id="clip0_445_16111">
<rect width="50" height="50" fill="white"/>
</clipPath>
</defs>
</svg>
