<svg width="50" height="50" viewBox="0 0 50 50" fill="none" xmlns="http://www.w3.org/2000/svg">
<path d="M1.5625 24.5313C1.5625 31.4063 4.45312 41.4062 13.2812 41.4062C22.1094 41.4062 25 31.4063 25 24.5313C25 3.28125 1.5625 3.28125 1.5625 24.5313ZM25 24.5313C25 31.4063 27.8906 41.4062 36.7188 41.4062C45.5469 41.4062 48.4375 31.4063 48.4375 24.5313C48.4375 3.28125 25 3.28125 25 24.5313Z" fill="#DDE8E3"/>
<path d="M2.1875 25.0781C2.1875 31.0156 4.0625 40.1563 11.5625 40.1563C19.0625 40.1563 20.9375 30.9375 20.9375 25.0781C20.8594 4.76562 2.1875 4.76562 2.1875 25.0781ZM25.625 25.0781C25.625 31.0156 27.5 40.1563 35 40.1563C42.5 40.1563 44.375 30.9375 44.375 25.0781C44.2969 4.76562 25.625 4.76562 25.625 25.0781Z" fill="white"/>
<path d="M2.1875 25.1562C2.1875 30 5.625 33.75 9.76562 33.75C13.9844 33.75 17.3438 30 17.3438 25.1562C17.3438 13.2812 2.1875 13.2812 2.1875 25.1562ZM25.625 25.1562C25.625 30 29.0625 33.75 33.2031 33.75C37.4219 33.75 40.7812 30 40.7812 25.1562C40.7812 13.2812 25.625 13.2812 25.625 25.1562Z" fill="#493B30"/>
</svg>
