<svg width="96" height="96" viewBox="0 0 96 96" fill="none" xmlns="http://www.w3.org/2000/svg">
<path d="M81.4001 64.0001C77.0001 64.0001 73.0001 61.2001 72.2001 56.8001C71.0001 51.0001 75.4001 46.0001 81.0001 46.0001C82.4001 46.0001 84.2001 46.0001 86.0001 46.0001V30.0001C86.0001 27.8001 84.2001 26.0001 82.0001 26.0001H66.0001V23.4001C66.0001 19.0001 63.2001 15.0001 58.8001 14.2001C53.0001 13.0001 48.0001 17.4001 48.0001 23.0001C48.0001 24.0001 48.0001 25.0001 48.0001 26.0001H32.0001C29.8001 26.0001 28.0001 27.8001 28.0001 30.0001V46.0001H25.4001C21.0001 46.0001 17.0001 48.8001 16.2001 53.2001C15.0001 59.0001 19.4001 64.0001 25.0001 64.0001C25.6001 64.0001 26.8001 64.0001 28.0001 64.0001V80.0001C28.0001 82.2001 29.8001 84.0001 32.0001 84.0001H48.0001V86.6001C48.0001 91.0001 50.8001 95.0001 55.2001 95.8001C61.0001 97.0001 66.0001 92.6001 66.0001 87.0001C66.0001 86.4001 66.0001 85.2001 66.0001 84.0001H82.0001C84.2001 84.0001 86.0001 82.2001 86.0001 80.0001V64.0001H81.4001Z" fill="#A5D6A7"/>
<path d="M70.2 77H75C77.2 77 79 75.2 79 73V57C76.8 57 74.8 57 74 57C69 57 65 53 65 48C65 43 69 39 74 39C75.4 39 77.2 39 79 39V23C79 20.8 77.2 19 75 19H59C59 17.8 59 16.6 59 16C59 11 55 7 50 7C45 7 41 11 41 16C41 17 41 18 41 19" stroke="#18193F" stroke-width="6" stroke-miterlimit="10" stroke-linecap="round" stroke-linejoin="round"/>
<path d="M29.2 19H25C22.8 19 21 20.8 21 23V39C20 39 18.8 39 18 39C13 39 9 43 9 48C9 53 13 57 18 57C18.6 57 19.8 57 21 57V73C21 75.2 22.8 77 25 77H41C41 78 41 79 41 80C41 85 45 89 50 89C55 89 59 85 59 80C59 79.4 59 78.2 59 77" stroke="#18193F" stroke-width="6" stroke-miterlimit="10" stroke-linecap="round" stroke-linejoin="round"/>
</svg>
