<svg width="18" height="18" viewBox="0 0 18 18" fill="none" xmlns="http://www.w3.org/2000/svg">
<path d="M13.4668 15.579L15.4804 8.45396C15.6157 7.97531 15.2561 7.5 14.7586 7.5H10.453C10.1893 7.5 9.99412 7.25467 10.0534 6.99769L10.2407 6.18604C10.4125 5.44151 10.4677 4.67486 10.4042 3.91342L10.3698 3.49976C10.3328 3.05601 10.1397 2.63972 9.82485 2.32485C9.53681 2.03682 9.14617 1.875 8.73881 1.875H8.64915C8.40277 1.875 8.17579 2.00856 8.05616 2.22391L7.05938 4.01809C6.61234 4.8228 5.94596 5.484 5.13784 5.92481L2.64086 7.28681C2.39991 7.41821 2.25 7.67077 2.25 7.94524V15.375C2.25 15.7892 2.58579 16.125 3 16.125H12.7451C13.0808 16.125 13.3755 15.902 13.4668 15.579Z" fill="#F6F6F6" stroke="#8E8E8E" stroke-linecap="round" stroke-linejoin="round"/>
</svg>
