<svg width="96" height="96" viewBox="0 0 96 96" fill="none" xmlns="http://www.w3.org/2000/svg">
<path d="M89.7999 62.2C89.7999 81.6 73.3999 97.2 53.7999 95.8C37.5999 94.8 24.1999 81.6 22.5999 65.4C20.9999 50.2 30.5999 40.6 35.7999 36.6C36.9999 35.6 38.9999 36.4 38.9999 38C39.3999 40.8 39.9999 45 41.7999 47.6C42.3999 48.4 43.1999 48.6 44.1999 48.4C54.5999 45 59.2 36.2 59.2 28.4C59.2 25 58.8 22.2 58.4 20.4C58 18.8 59.8 17.4 61.4 18.2C70 22.8 89.7999 36 89.7999 62.2Z" fill="#F48FB1"/>
<path d="M67 81C61 85.2 53.6 87.6 45.6 87C29.6 86 16.6 73.2 15 57.4C15 57.2 15 57.2 15 57" stroke="#18193F" stroke-width="6" stroke-linecap="round" stroke-linejoin="round"/>
<path d="M17.2002 42.8C20.0002 36 24.8002 31.4 28.0002 29C29.2002 28 31.0002 28.8 31.2002 30.4C31.6002 33.2 32.2002 37.2 34.0002 39.8C34.4002 40.6 35.4002 40.8 36.2002 40.6C46.2002 37.2 50.8002 28.6 50.8002 21C50.8002 17.6 50.4002 15 50.0002 13C49.6002 11.4 51.4002 9.99999 52.8002 10.8C61.4002 15.4 80.6002 28.2 80.6002 53.8C80.6002 59.8 79.0002 65.2 76.4002 70" stroke="#18193F" stroke-width="6" stroke-linecap="round" stroke-linejoin="round"/>
</svg>
