<svg width="96" height="96" viewBox="0 0 96 96" fill="none" xmlns="http://www.w3.org/2000/svg">
<path d="M78.5999 38.5999C83.6809 38.5999 87.7999 34.481 87.7999 29.4C87.7999 24.3189 83.6809 20.2 78.5999 20.2C73.5189 20.2 69.3999 24.3189 69.3999 29.4C69.3999 34.481 73.5189 38.5999 78.5999 38.5999Z" fill="#90CAF9"/>
<path d="M50.8001 38.5999C55.3288 38.5999 59.0001 34.9287 59.0001 30.4C59.0001 25.8712 55.3288 22.2 50.8001 22.2C46.2714 22.2 42.6001 25.8712 42.6001 30.4C42.6001 34.9287 46.2714 38.5999 50.8001 38.5999Z" fill="#90CAF9"/>
<path d="M28.4002 38.5999C31.8244 38.5999 34.6002 35.8241 34.6002 32.4C34.6002 28.9758 31.8244 26.2 28.4002 26.2C24.976 26.2 22.2002 28.9758 22.2002 32.4C22.2002 35.8241 24.976 38.5999 28.4002 38.5999Z" fill="#90CAF9"/>
<path d="M38.2 57.7999C37 53.1999 32.6 49.7999 27.4 50.1999C22 50.5999 18 55.3999 18 60.7999V75.3999C18 77.5999 19.8 79.3999 22 79.3999H36.4" fill="#90CAF9"/>
<path d="M64.8002 59.7999C62.4002 53.1999 55.4002 48.7999 47.8002 50.3999C40.8002 51.7999 36.2002 58.1999 36.2002 65.3999V81.7999C36.2002 84.1999 38.0002 85.9999 40.4002 85.9999H64.0002" fill="#90CAF9"/>
<path d="M94 66.3999V87.7999C94 90.1999 92.2 91.9999 89.8 91.9999H66.2C63.8 91.9999 62 90.1999 62 87.7999V65.7999C62 55.7999 71.2 48.1999 81.8 50.3999C89 51.9999 94 58.7999 94 66.3999Z" fill="#90CAF9"/>
<path d="M70 31C74.9706 31 79 26.9706 79 22C79 17.0294 74.9706 13 70 13C65.0294 13 61 17.0294 61 22C61 26.9706 65.0294 31 70 31Z" stroke="#18193F" stroke-width="6"/>
<path d="M43 31C47.4183 31 51 27.4183 51 23C51 18.5817 47.4183 15 43 15C38.5817 15 35 18.5817 35 23C35 27.4183 38.5817 31 43 31Z" stroke="#18193F" stroke-width="6"/>
<path d="M21 31C24.3137 31 27 28.3137 27 25C27 21.6863 24.3137 19 21 19C17.6863 19 15 21.6863 15 25C15 28.3137 17.6863 31 21 31Z" stroke="#18193F" stroke-width="6"/>
<path d="M11 54V67C11 69.2 12.8 71 15 71H18.8" stroke="#18193F" stroke-width="6" stroke-linecap="round" stroke-linejoin="round"/>
<path d="M23 43.2C22.2 43 21.2 43 20.2 43C15 43.4 11 48 11 53.4" stroke="#18193F" stroke-width="6" stroke-linecap="round" stroke-linejoin="round"/>
<path d="M48.2 43.9999C46 43.1999 43.8 42.7999 41.2 42.9999C34 43.7999 29 50.1999 29 57.3999V72.9999C29 75.1999 30.8 76.9999 33 76.9999H43.8" stroke="#18193F" stroke-width="6" stroke-linecap="round" stroke-linejoin="round"/>
<path d="M85 58.6001V79.0001C85 81.2001 83.2 83.0001 81 83.0001H59C56.8 83.0001 55 81.2001 55 79.0001V71.0001" stroke="#18193F" stroke-width="6" stroke-linecap="round" stroke-linejoin="round"/>
<path d="M55 61.5999V57.9999C55 49.5999 62 42.7999 70.4 42.9999C74.2 43.1999 77.8 44.7999 80.4 47.3999" stroke="#18193F" stroke-width="6" stroke-linecap="round" stroke-linejoin="round"/>
</svg>
