<svg width="50" height="45" viewBox="0 0 50 45" fill="none" xmlns="http://www.w3.org/2000/svg">
<path d="M8.54722 39.4985L3.81389 44.3061C3.11204 45.0189 2.30093 45.1826 1.38056 44.797C0.460185 44.4114 0 43.7108 0 42.6951V4.55926C0 3.25957 0.428704 2.17524 1.28611 1.30627C2.14352 0.437305 3.21111 0.00188088 4.48889 0H45.5139C46.7917 0 47.8593 0.435424 48.7167 1.30627C49.5741 2.17712 50.0018 3.26145 50 4.55926V34.9421C50 36.2399 49.5722 37.3242 48.7167 38.1951C47.8611 39.0659 46.7935 39.5004 45.5139 39.4985H8.54722ZM7.36111 36.6772H45.5139C45.9398 36.6772 46.3315 36.4966 46.6889 36.1355C47.0463 35.7744 47.2241 35.3766 47.2222 34.9421V4.55644C47.2222 4.12383 47.0444 3.72603 46.6889 3.36302C46.3333 3.00001 45.9417 2.81944 45.5139 2.82132H4.48611C4.06018 2.82132 3.66852 3.00189 3.31111 3.36302C2.9537 3.72415 2.77593 4.12195 2.77778 4.55644V41.3183L7.36111 36.6772ZM11.1111 29.6239H27.7778C28.1741 29.6239 28.5046 29.4894 28.7694 29.2204C29.0343 28.9515 29.1667 28.6157 29.1667 28.2132C29.1667 27.8107 29.0343 27.475 28.7694 27.206C28.5046 26.9371 28.1741 26.8026 27.7778 26.8026H11.1111C10.7167 26.8026 10.3861 26.9371 10.1194 27.206C9.85278 27.475 9.72037 27.8107 9.72222 28.2132C9.72407 28.6157 9.85648 28.9515 10.1194 29.2204C10.3824 29.4894 10.713 29.6239 11.1111 29.6239ZM11.1111 21.1599H38.8889C39.2852 21.1599 39.6157 21.0254 39.8806 20.7565C40.1454 20.4875 40.2778 20.1518 40.2778 19.7493C40.2778 19.3468 40.1454 19.011 39.8806 18.7421C39.6157 18.4731 39.2852 18.3386 38.8889 18.3386H11.1111C10.7167 18.3386 10.3861 18.4731 10.1194 18.7421C9.85278 19.011 9.72037 19.3468 9.72222 19.7493C9.72407 20.1518 9.85648 20.4875 10.1194 20.7565C10.3824 21.0254 10.713 21.1599 11.1111 21.1599ZM11.1111 12.696H38.8889C39.2852 12.696 39.6157 12.5615 39.8806 12.2925C40.1454 12.0235 40.2778 11.6878 40.2778 11.2853C40.2778 10.8828 40.1454 10.547 39.8806 10.2781C39.6157 10.0091 39.2852 9.87463 38.8889 9.87463H11.1111C10.7167 9.87463 10.3861 10.0091 10.1194 10.2781C9.85278 10.547 9.72037 10.8828 9.72222 11.2853C9.72407 11.6878 9.85648 12.0235 10.1194 12.2925C10.3824 12.5615 10.713 12.696 11.1111 12.696Z" fill="#8E8E8E"/>
</svg>
